<?xml version="1.0" standalone="no"?>
<!DOCTYPE svg PUBLIC "-//W3C//DTD SVG 20010904//EN"
 "http://www.w3.org/TR/2001/REC-SVG-20010904/DTD/svg10.dtd">
<svg version="1.0" xmlns="http://www.w3.org/2000/svg"
 width="500.000000pt" height="500.000000pt" viewBox="0 0 500.000000 500.000000"
 preserveAspectRatio="xMidYMid meet">

<g transform="translate(0.000000,500.000000) scale(0.100000,-0.100000)"
fill="#0071b9" stroke="none">
<path d="M2041 4276 l-454 -221 -113 -494 -113 -494 312 -393 312 -393 514 2
514 2 309 388 c169 213 308 395 308 405 0 19 -216 972 -222 977 -4 5 -699 342
-823 399 l-90 42 -454 -220z m143 -366 c52 -63 57 -162 8 -200 -22 -18 -28
-19 -46 -7 -40 27 -60 65 -64 127 -8 103 46 145 102 80z m233 3 c38 -57 9
-179 -48 -209 -28 -14 -31 -13 -54 10 -20 20 -25 35 -25 75 0 118 80 196 127
124z m-404 -164 c50 -39 57 -138 12 -156 -42 -15 -95 47 -95 112 0 24 31 65
49 65 4 0 20 -9 34 -21z m553 -4 c35 -53 -7 -155 -63 -155 -34 0 -56 54 -42
103 10 36 50 77 75 77 7 0 21 -11 30 -25z m-240 -134 c94 -43 157 -170 124
-255 -15 -39 -37 -45 -120 -31 -70 12 -141 9 -201 -10 -31 -10 -66 19 -73 60
-16 83 48 200 128 236 52 23 90 23 142 0z m341 -253 c34 -38 46 -69 47 -125 0
-44 -4 -57 -25 -79 -22 -21 -29 -23 -52 -15 -36 14 -69 82 -69 143 0 86 52
127 99 76z m247 -22 c16 -34 17 -45 7 -88 -21 -93 -69 -133 -115 -97 -30 24
-39 77 -21 136 29 97 93 122 129 49z m-411 -147 c61 -47 56 -154 -8 -154 -60
0 -99 111 -55 155 25 25 31 25 63 -1z m548 0 c46 -46 0 -164 -61 -157 -57 7
-60 113 -3 157 32 26 38 26 64 0z m-261 -129 c104 -29 183 -166 150 -264 -14
-43 -40 -53 -96 -37 -51 14 -140 14 -203 -1 -45 -10 -53 -9 -70 6 -52 47 -29
169 45 242 56 57 108 73 174 54z"/>
<path d="M1860 2025 c0 -96 3 -115 15 -115 11 0 15 11 15 39 0 39 0 40 45 47
51 7 75 32 75 76 0 46 -31 68 -95 68 l-55 0 0 -115z m110 65 c17 -32 -4 -60
-45 -60 -34 0 -35 1 -35 40 0 39 1 40 35 40 24 0 37 -6 45 -20z"/>
<path d="M2250 2025 l0 -115 75 0 c60 0 75 3 75 15 0 12 -13 15 -60 15 l-60 0
0 35 0 35 55 0 c42 0 55 3 55 15 0 12 -13 15 -55 15 l-55 0 0 35 0 35 60 0
c47 0 60 3 60 15 0 12 -15 15 -75 15 l-75 0 0 -115z"/>
<path d="M2630 2125 c0 -10 10 -15 30 -15 l30 0 0 -100 c0 -82 3 -100 15 -100
12 0 15 18 15 100 l0 100 30 0 c20 0 30 5 30 15 0 12 -15 15 -75 15 -60 0 -75
-3 -75 -15z"/>
<path d="M3027 2122 c-35 -38 -16 -80 49 -107 19 -8 37 -21 40 -30 14 -35 -42
-59 -86 -35 -13 7 -19 6 -24 -6 -13 -34 92 -46 124 -14 38 38 24 82 -34 112
-46 23 -57 35 -49 54 7 19 37 26 66 15 19 -7 27 -6 31 4 11 30 -91 36 -117 7z"/>
<path d="M3047 1690 c-39 -12 -58 -29 -74 -68 -26 -62 10 -142 71 -158 37 -9
96 4 96 21 0 11 -10 13 -44 9 -39 -6 -48 -3 -70 19 -35 35 -36 94 -2 126 19
18 33 22 67 20 25 -2 44 1 46 8 7 21 -48 35 -90 23z"/>
<path d="M1107 1672 c-35 -38 -16 -80 49 -107 19 -8 37 -21 40 -30 14 -35 -42
-59 -86 -35 -13 7 -19 6 -24 -6 -13 -34 92 -46 124 -14 38 38 24 82 -34 112
-46 23 -57 35 -49 54 7 19 37 26 66 15 19 -7 27 -6 31 4 11 30 -91 36 -117 7z"/>
<path d="M1470 1575 l0 -115 80 0 c63 0 80 3 80 15 0 10 -16 15 -62 17 -63 3
-63 3 -66 36 l-3 32 55 0 c42 0 56 4 56 14 0 11 -15 16 -52 18 -52 3 -53 4
-56 36 l-3 32 60 0 c48 0 61 3 61 15 0 12 -15 15 -75 15 l-75 0 0 -115z"/>
<path d="M1870 1575 c0 -96 3 -115 15 -115 11 0 15 11 15 40 0 35 3 40 23 40
15 0 30 -12 47 -40 14 -22 33 -40 42 -40 23 0 23 3 -9 51 -18 27 -23 43 -15
47 20 13 32 60 22 86 -12 33 -39 46 -94 46 l-46 0 0 -115z m100 71 c6 -8 10
-25 8 -38 -2 -19 -10 -24 -40 -26 l-38 -3 0 40 c0 38 2 41 29 41 16 0 34 -7
41 -14z"/>
<path d="M2299 1580 c26 -60 50 -112 52 -115 4 -3 62 126 96 213 3 7 -3 12
-15 12 -15 0 -25 -16 -47 -77 l-28 -77 -14 30 c-7 16 -22 50 -33 77 -14 33
-25 47 -39 47 -18 0 -15 -10 28 -110z"/>
<path d="M2690 1575 c0 -96 3 -115 15 -115 12 0 15 19 15 115 0 96 -3 115 -15
115 -12 0 -15 -19 -15 -115z"/>
<path d="M3390 1575 l0 -115 75 0 c60 0 75 3 75 15 0 12 -13 15 -60 15 l-60 0
0 35 0 35 55 0 c42 0 55 3 55 15 0 12 -13 15 -55 15 l-55 0 0 35 0 35 60 0
c47 0 60 3 60 15 0 12 -15 15 -75 15 l-75 0 0 -115z"/>
<path d="M3796 1671 c-10 -11 -16 -31 -14 -48 2 -22 13 -33 51 -53 40 -21 47
-29 45 -50 -3 -22 -8 -25 -38 -24 -19 0 -42 2 -50 5 -9 2 -15 -2 -15 -11 0
-24 71 -37 102 -20 63 36 56 89 -15 123 -26 12 -48 30 -50 39 -5 25 33 42 68
30 22 -8 30 -7 34 3 11 31 -91 36 -118 6z"/>
</g>
</svg>
